<svg width="419.9462158203125px" height="122.02138671875px" xmlns="http://www.w3.org/2000/svg" viewBox="40.026892089843756 13.989306640625003 419.9462158203125 122.02138671875" style="background: rgba(0, 0, 0, 0);" preserveAspectRatio="xMidYMid"><defs><linearGradient id="editing-gradient-gradient" x1="0" x2="1" y1="0.5" y2="0.5" gradientUnits="objectBoundingBox"><stop offset="0" stop-color="#5c0f89"></stop><stop offset="1" stop-color="#14ffff"></stop></linearGradient></defs><g><g transform="translate(105.12843084335327, 104.43218803405762)"><path d="M30.91-4.38L30.91-4.38L30.91-4.38Q28.22-1.66 24.54-0.19L24.54-0.19L24.54-0.19Q20.86 1.28 17.22 1.28L17.22 1.28L17.22 1.28Q13.57 1.28 12.29 0.64L12.29 0.64L10.30 11.52L-2.69 12.80L6.14-32.64L16.58-33.73L15.74-29.31L15.74-29.31Q18.43-33.86 24-33.86L24-33.86L24-33.86Q30.27-33.86 33.60-29.82L33.60-29.82L33.60-29.82Q36.54-26.18 36.54-20.61L36.54-20.61L36.54-20.61Q36.54-15.04 35.07-11.07L35.07-11.07L35.07-11.07Q33.60-7.10 30.91-4.38ZM16.45-22.34L13.06-3.58L13.06-3.58Q14.40-2.43 16.06-2.43L16.06-2.43L16.06-2.43Q17.73-2.43 18.69-3.07L18.69-3.07L18.69-3.07Q19.65-3.71 20.35-4.99L20.35-4.99L20.35-4.99Q22.27-8.45 23.81-18.94L23.81-18.94L23.81-18.94Q24.26-22.02 24.26-25.02L24.26-25.02L24.26-25.02Q24.26-28.03 23.58-28.99L23.58-28.99L23.58-28.99Q22.91-29.95 21.63-29.95L21.63-29.95L21.63-29.95Q17.73-29.95 16.45-22.34L16.45-22.34ZM66.30-10.82L66.30-10.82L66.30-10.82Q67.90-9.73 67.90-7.33L67.90-7.33L67.90-7.33Q67.90-4.93 66.69-3.39L66.69-3.39L66.69-3.39Q65.47-1.86 63.49-0.83L63.49-0.83L63.49-0.83Q59.39 1.28 54.98 1.28L54.98 1.28L54.98 1.28Q50.56 1.28 47.97 0.32L47.97 0.32L47.97 0.32Q45.38-0.64 43.65-2.43L43.65-2.43L43.65-2.43Q40.26-5.82 40.26-12.03L40.26-12.03L40.26-12.03Q40.26-21.70 45.50-27.58L45.50-27.58L45.50-27.58Q51.14-33.92 60.93-33.92L60.93-33.92L60.93-33.92Q67.01-33.92 70.02-31.36L70.02-31.36L70.02-31.36Q72.26-29.44 72.26-26.30L72.26-26.30L72.26-26.30Q72.26-15.04 52.80-15.04L52.80-15.04L52.80-15.04Q52.54-13.38 52.54-11.97L52.54-11.97L52.54-11.97Q52.54-9.02 53.86-7.90L53.86-7.90L53.86-7.90Q55.17-6.78 57.60-6.78L57.60-6.78L57.60-6.78Q60.03-6.78 62.62-7.90L62.62-7.90L62.62-7.90Q65.22-9.02 66.30-10.82ZM53.25-17.79L53.25-17.79L53.25-17.79Q57.79-17.79 60.42-20.61L60.42-20.61L60.42-20.61Q63.04-23.30 63.04-27.58L63.04-27.58L63.04-27.58Q63.04-29.06 62.50-29.86L62.50-29.86L62.50-29.86Q61.95-30.66 60.86-30.66L60.86-30.66L60.86-30.66Q59.78-30.66 58.85-30.24L58.85-30.24L58.85-30.24Q57.92-29.82 56.96-28.42L56.96-28.42L56.96-28.42Q54.59-25.22 53.25-17.79ZM75.46-6.40L75.46-6.40L75.46-6.40Q75.46-8.13 76.35-12.48L76.35-12.48L79.74-29.76L75.97-29.76L76.22-31.68L76.22-31.68Q83.90-33.98 91.33-39.62L91.33-39.62L94.40-39.62L92.86-32.64L97.86-32.64L97.28-29.76L92.35-29.76L89.09-12.48L89.09-12.48Q88.26-8.51 88.26-7.17L88.26-7.17L88.26-7.17Q88.26-4.10 90.94-3.46L90.94-3.46L90.94-3.46Q90.30-1.28 88 0L88 0L88 0Q85.70 1.28 82.43 1.28L82.43 1.28L82.43 1.28Q79.17 1.28 77.31-0.77L77.31-0.77L77.31-0.77Q75.46-2.82 75.46-6.40ZM116.67-22.46L116.67-22.46L116.67-22.46Q117.57-24.83 117.57-26.88L117.57-26.88L117.57-26.88Q117.57-30.66 114.50-30.66L114.50-30.66L114.50-30.66Q112.90-30.66 111.58-29.22L111.58-29.22L111.58-29.22Q110.27-27.78 110.27-25.98L110.27-25.98L110.27-25.98Q110.27-24.70 111.30-23.68L111.30-23.68L111.30-23.68Q112.77-22.27 116.54-19.97L116.54-19.97L116.54-19.97Q120.32-17.66 121.76-15.78L121.76-15.78L121.76-15.78Q123.20-13.89 123.20-11.30L123.20-11.30L123.20-11.30Q123.20-8.70 121.95-6.34L121.95-6.34L121.95-6.34Q120.70-3.97 118.46-2.30L118.46-2.30L118.46-2.30Q113.66 1.28 105.98 1.28L105.98 1.28L105.98 1.28Q101.82 1.28 98.62-0.90L98.62-0.90L98.62-0.90Q95.42-3.01 95.42-5.50L95.42-5.50L95.42-5.50Q95.42-8 97.25-9.47L97.25-9.47L97.25-9.47Q99.07-10.94 101.76-10.94L101.76-10.94L101.76-10.94Q104.45-10.94 106.11-9.92L106.11-9.92L106.11-9.92Q105.28-7.81 105.28-6.40L105.28-6.40L105.28-6.40Q105.28-2.18 108.86-2.18L108.86-2.18L108.86-2.18Q110.40-2.18 111.42-3.14L111.42-3.14L111.42-3.14Q112.45-4.10 112.45-5.76L112.45-5.76L112.45-5.76Q112.45-9.02 106.94-12.48L106.94-12.48L106.94-12.48Q102.46-15.42 101.44-16.58L101.44-16.58L101.44-16.58Q99.71-18.62 99.71-21.18L99.71-21.18L99.71-21.18Q99.71-23.74 100.93-26.18L100.93-26.18L100.93-26.18Q102.14-28.61 104.38-30.34L104.38-30.34L104.38-30.34Q109.06-33.92 117.18-33.92L117.18-33.92L117.18-33.92Q121.34-33.92 123.81-32.26L123.81-32.26L123.81-32.26Q126.27-30.59 126.27-27.78L126.27-27.78L126.27-27.78Q126.27-24.96 124.58-23.36L124.58-23.36L124.58-23.36Q122.88-21.76 119.81-21.76L119.81-21.76L119.81-21.76Q117.70-21.76 116.67-22.46ZM143.94-3.52L143.94-3.52L143.94-3.52Q141.95 1.28 135.62 1.28L135.62 1.28L135.62 1.28Q132.42 1.28 130.37-0.96L130.37-0.96L130.37-0.96Q128.70-2.82 128.70-4.93L128.70-4.93L128.70-4.93Q128.70-9.73 130.94-20.22L130.94-20.22L135.62-44.80L148.61-46.08L142.40-13.70L142.40-13.70Q141.31-8.96 141.31-7.30L141.31-7.30L141.31-7.30Q141.31-3.65 143.94-3.52ZM163.33 1.28L163.33 1.28L163.33 1.28Q149.25 1.28 149.25-11.97L149.25-11.97L149.25-11.97Q149.25-21.38 154.43-27.46L154.43-27.46L154.43-27.46Q159.94-33.92 169.47-33.92L169.47-33.92L169.47-33.92Q176.38-33.92 179.90-30.72L179.90-30.72L179.90-30.72Q183.42-27.52 183.42-20.80L183.42-20.80L183.42-20.80Q183.42-10.56 177.92-4.61L177.92-4.61L177.92-4.61Q172.54 1.28 163.33 1.28ZM164.99-26.56L164.99-26.56L164.99-26.56Q164.22-24.83 163.62-22.24L163.62-22.24L163.62-22.24Q163.01-19.65 162.24-15.55L162.24-15.55L162.24-15.55Q161.47-11.46 161.47-6.40L161.47-6.40L161.47-6.40Q161.47-4.74 162.02-3.65L162.02-3.65L162.02-3.65Q162.56-2.56 164.03-2.56L164.03-2.56L164.03-2.56Q165.50-2.56 166.43-3.26L166.43-3.26L166.43-3.26Q167.36-3.97 168.06-5.63L168.06-5.63L168.06-5.63Q169.34-8.58 170.37-14.05L170.37-14.05L170.37-14.05Q171.39-19.52 171.49-21.89L171.49-21.89L171.49-21.89Q171.58-24.26 171.58-26.02L171.58-26.02L171.58-26.02Q171.58-27.78 171.07-28.93L171.07-28.93L171.07-28.93Q170.56-30.08 169.12-30.08L169.12-30.08L169.12-30.08Q167.68-30.08 166.72-29.18L166.72-29.18L166.72-29.18Q165.76-28.29 164.99-26.56ZM210.43-31.55L210.43-31.55L210.43-31.55Q212.54-33.92 216.19-33.92L216.19-33.92L216.19-33.92Q218.43-33.92 220.16-32.70L220.16-32.70L220.16-32.70Q221.89-31.49 221.89-29.22L221.89-29.22L221.89-29.22Q221.89-26.94 221.18-24.51L221.18-24.51L221.18-24.51Q220.48-22.08 219.39-19.58L219.39-19.58L219.39-19.58Q217.22-14.72 214.21-10.69L214.21-10.69L214.21-10.69Q209.98-4.86 205.92-1.79L205.92-1.79L205.92-1.79Q201.86 1.28 197.44 1.28L197.44 1.28L197.44 1.28Q193.86 1.28 191.68 0.45L191.68 0.45L191.68 0.45Q191.30-12.99 190.82-17.79L190.82-17.79L190.82-17.79Q190.34-22.59 189.95-25.22L189.95-25.22L189.95-25.22Q189.31-30.34 187.39-31.55L187.39-31.55L187.39-31.55Q188.86-32.83 190.30-33.38L190.30-33.38L190.30-33.38Q191.74-33.92 194.72-33.92L194.72-33.92L194.72-33.92Q197.70-33.92 199.81-31.58L199.81-31.58L199.81-31.58Q201.92-29.25 202.34-25.12L202.34-25.12L202.34-25.12Q202.75-20.99 202.75-16L202.75-16L202.75-16Q202.75-11.01 202.37-4.99L202.37-4.99L202.37-4.99Q204.35-6.40 206.46-10.69L206.46-10.69L206.46-10.69Q209.34-16.64 210.37-23.81L210.37-23.81L210.37-23.81Q210.69-25.98 210.69-28.29L210.69-28.29L210.69-28.29Q210.69-30.59 210.43-31.55ZM249.54-10.82L249.54-10.82L249.54-10.82Q251.14-9.73 251.14-7.33L251.14-7.33L251.14-7.33Q251.14-4.93 249.92-3.39L249.92-3.39L249.92-3.39Q248.70-1.86 246.72-0.83L246.72-0.83L246.72-0.83Q242.62 1.28 238.21 1.28L238.21 1.28L238.21 1.28Q233.79 1.28 231.20 0.32L231.20 0.32L231.20 0.32Q228.61-0.64 226.88-2.43L226.88-2.43L226.88-2.43Q223.49-5.82 223.49-12.03L223.49-12.03L223.49-12.03Q223.49-21.70 228.74-27.58L228.74-27.58L228.74-27.58Q234.37-33.92 244.16-33.92L244.16-33.92L244.16-33.92Q250.24-33.92 253.25-31.36L253.25-31.36L253.25-31.36Q255.49-29.44 255.49-26.30L255.49-26.30L255.49-26.30Q255.49-15.04 236.03-15.04L236.03-15.04L236.03-15.04Q235.78-13.38 235.78-11.97L235.78-11.97L235.78-11.97Q235.78-9.02 237.09-7.90L237.09-7.90L237.09-7.90Q238.40-6.78 240.83-6.78L240.83-6.78L240.83-6.78Q243.26-6.78 245.86-7.90L245.86-7.90L245.86-7.90Q248.45-9.02 249.54-10.82ZM236.48-17.79L236.48-17.79L236.48-17.79Q241.02-17.79 243.65-20.61L243.65-20.61L243.65-20.61Q246.27-23.30 246.27-27.58L246.27-27.58L246.27-27.58Q246.27-29.06 245.73-29.86L245.73-29.86L245.73-29.86Q245.18-30.66 244.10-30.66L244.10-30.66L244.10-30.66Q243.01-30.66 242.08-30.24L242.08-30.24L242.08-30.24Q241.15-29.82 240.19-28.42L240.19-28.42L240.19-28.42Q237.82-25.22 236.48-17.79ZM277.70-17.98L277.70-17.98L277.70-17.98Q280.00-22.08 280.00-26.24L280.00-26.24L280.00-26.24Q280.00-28.99 278.02-28.99L278.02-28.99L278.02-28.99Q276.48-28.99 274.88-26.37L274.88-26.37L274.88-26.37Q273.22-23.74 272.70-20.35L272.70-20.35L269.38 0L256.13 1.28L262.66-32.64L273.22-33.92L272.06-27.46L272.06-27.46Q275.20-33.92 282.24-33.92L282.24-33.92L282.24-33.92Q285.95-33.92 287.97-32L287.97-32L287.97-32Q289.98-30.08 289.98-26.14L289.98-26.14L289.98-26.14Q289.98-22.21 287.39-19.71L287.39-19.71L287.39-19.71Q284.80-17.22 280.38-17.22L280.38-17.22L280.38-17.22Q278.46-17.22 277.70-17.98Z" fill="url(#editing-gradient-gradient)"></path></g></g><style>text {
  font-size: 64px;
  font-family: Arial Black;
  dominant-baseline: central;
  text-anchor: middle;
}</style></svg>